<svg xmlns="http://www.w3.org/2000/svg" width="30" height="50" viewBox="0 0 30 50">
  <metadata><?xpacket begin="﻿" id="W5M0MpCehiHzreSzNTczkc9d"?>
<x:xmpmeta xmlns:x="adobe:ns:meta/" x:xmptk="Adobe XMP Core 5.6-c138 79.159824, 2016/09/14-01:09:01        ">
   <rdf:RDF xmlns:rdf="http://www.w3.org/1999/02/22-rdf-syntax-ns#">
      <rdf:Description rdf:about=""/>
   </rdf:RDF>
</x:xmpmeta>
                                                                                                    
                                                                                                    
                                                                                                    
                                                                                                    
                                                                                                    
                                                                                                    
                                                                                                    
                                                                                                    
                                                                                                    
                                                                                                    
                                                                                                    
                                                                                                    
                                                                                                    
                                                                                                    
                                                                                                    
                                                                                                    
                                                                                                    
                                                                                                    
                                                                                                    
                                                                                                    
                           
<?xpacket end="w"?></metadata>
<defs>
    <style>
      .cls-1 {
        fill: #141414;
        fill-rule: evenodd;
      }
    </style>
  </defs>
  <path id="Iphone_Icon" data-name="Iphone Icon" class="cls-1" d="M475.875,1157h-19.75a5.121,5.121,0,0,0-5.125,5.12v38.76a5.121,5.121,0,0,0,5.125,5.12h19.75a5.121,5.121,0,0,0,5.125-5.12v-38.76A5.121,5.121,0,0,0,475.875,1157ZM479,1200.88a3.126,3.126,0,0,1-3.125,3.12h-19.75a3.126,3.126,0,0,1-3.125-3.12V1196h26v4.88Zm0-6.88H453v-28h26v28Zm0-30H453v-1.88a3.126,3.126,0,0,1,3.125-3.12h19.75a3.126,3.126,0,0,1,3.125,3.12V1164Zm-13,38a2,2,0,1,0-2-2A2,2,0,0,0,466,1202Z" transform="translate(-451 -1156.5)"/>
</svg>
