<svg xmlns="http://www.w3.org/2000/svg" width="48" height="48" viewBox="0 0 48 48">
  <metadata><?xpacket begin="﻿" id="W5M0MpCehiHzreSzNTczkc9d"?>
<x:xmpmeta xmlns:x="adobe:ns:meta/" x:xmptk="Adobe XMP Core 5.6-c138 79.159824, 2016/09/14-01:09:01        ">
   <rdf:RDF xmlns:rdf="http://www.w3.org/1999/02/22-rdf-syntax-ns#">
      <rdf:Description rdf:about=""/>
   </rdf:RDF>
</x:xmpmeta>
                                                                                                    
                                                                                                    
                                                                                                    
                                                                                                    
                                                                                                    
                                                                                                    
                                                                                                    
                                                                                                    
                                                                                                    
                                                                                                    
                                                                                                    
                                                                                                    
                                                                                                    
                                                                                                    
                                                                                                    
                                                                                                    
                                                                                                    
                                                                                                    
                                                                                                    
                                                                                                    
                           
<?xpacket end="w"?></metadata>
<defs>
    <style>
      .cls-1 {
        fill: #141414;
        fill-rule: evenodd;
      }
    </style>
  </defs>
  <path id="Settings_Icon" data-name="Settings Icon" class="cls-1" d="M1066.1,1330.32l7.57,2.95,0.5,6.65,6.64,0.55,2.87,7.61-5.13,5.37,4.07,6.22-4.21,6.95-7.39-.74-2.39,7.03-8.06.96-3.97-6.29-7.01,2.45-5.71-5.77,2.5-7-6.24-4.02,1.03-8.07,7.05-2.33-0.68-7.4,6.98-4.16,6.17,4.13,5.41-5.09m-0.45-2.32-5.17,4.86-5.9-3.94-9.14,5.45,0.64,7.07-6.74,2.23-1.34,10.57,5.96,3.84-2.39,6.69,7.49,7.56,6.7-2.34,3.79,6.01,10.57-1.25,2.28-6.73,7.06,0.71,5.52-9.1-3.88-5.95,4.9-5.13-3.77-9.96-6.2-.52-0.46-6.21-9.92-3.86h0Zm-3.65,17h0a7.007,7.007,0,1,1-6.52,4.46A6.941,6.941,0,0,1,1062,1345m0-2a9,9,0,1,0,3.26.61,9.012,9.012,0,0,0-3.26-.61h0Z" transform="translate(-1038 -1328)"/>
</svg>
